<svg width="100" height="100" viewBox="0 0 100 100" fill="none" xmlns="http://www.w3.org/2000/svg">
<g id="Group">
<rect id="Rectangle" width="100" height="100" rx="15" fill="#5800AF"/>
<path id="Icon" d="M56.3639 56.6349C57.379 56.9733 58.4763 56.4247 58.8146 55.4096C59.153 54.3944 58.6044 53.2972 57.5893 52.9588L56.3639 56.6349ZM50.4375 52.6172H48.5C48.5 53.4511 49.0336 54.1915 49.8248 54.4553L50.4375 52.6172ZM52.375 43.5029C52.375 42.4329 51.5076 41.5654 50.4375 41.5654C49.3674 41.5654 48.5 42.4329 48.5 43.5029H52.375ZM57.5893 52.9588L51.0502 50.7791L49.8248 54.4553L56.3639 56.6349L57.5893 52.9588ZM52.375 52.6172V43.5029H48.5V52.6172H52.375ZM65.9375 50.4375C65.9375 58.9979 58.9979 65.9375 50.4375 65.9375V69.8125C61.138 69.8125 69.8125 61.138 69.8125 50.4375H65.9375ZM50.4375 65.9375C41.8771 65.9375 34.9375 58.9979 34.9375 50.4375H31.0625C31.0625 61.138 39.737 69.8125 50.4375 69.8125V65.9375ZM34.9375 50.4375C34.9375 41.8771 41.8771 34.9375 50.4375 34.9375V31.0625C39.737 31.0625 31.0625 39.737 31.0625 50.4375H34.9375ZM50.4375 34.9375C58.9979 34.9375 65.9375 41.8771 65.9375 50.4375H69.8125C69.8125 39.737 61.138 31.0625 50.4375 31.0625V34.9375Z" fill="white"/>
</g>
</svg>
