<svg width="79" height="79" viewBox="0 0 79 79" fill="none" xmlns="http://www.w3.org/2000/svg">
<g id="Group">
<rect id="Rectangle" width="78.1958" height="78.1958" rx="6.7025" fill="#5800AF"/>
<g id="Group_2">
<path id="Union" fill-rule="evenodd" clip-rule="evenodd" d="M25.5096 50.478C26.9633 50.7259 28.1672 49.5075 28.1672 48.0328C28.1672 46.5581 26.9528 45.396 25.5258 45.024C24.4009 44.7308 23.3265 44.2507 22.3496 43.5979C20.6276 42.4473 19.2854 40.8119 18.4929 38.8985C17.7003 36.9851 17.493 34.8797 17.897 32.8484C18.301 30.8172 19.2983 28.9514 20.7628 27.4869C22.2272 26.0225 24.0931 25.0252 26.1243 24.6211C28.1555 24.2171 30.261 24.4245 32.1744 25.217C34.0878 26.0096 35.7232 27.3517 36.8738 29.0737C37.5266 30.0507 38.0067 31.125 38.2999 32.2499C38.6719 33.6769 39.834 34.8913 41.3087 34.8913C42.7834 34.8913 44.0018 33.6875 43.7539 32.2337C43.382 30.0524 42.5545 27.9632 41.3141 26.1068C39.5767 23.5066 37.1072 21.4799 34.218 20.2832C31.3288 19.0864 28.1496 18.7733 25.0825 19.3834C22.0153 19.9935 19.1979 21.4994 16.9866 23.7107C14.7753 25.922 13.2694 28.7394 12.6593 31.8066C12.0492 34.8737 12.3623 38.0529 13.5591 40.9422C14.7558 43.8314 16.7824 46.3008 19.3827 48.0382C21.239 49.2786 23.3282 50.1061 25.5096 50.478ZM28.2358 40.2534C31.1593 40.2534 33.5293 37.8834 33.5293 34.9599C33.5293 32.0364 31.1593 29.6665 28.2358 29.6665C25.3123 29.6665 22.9423 32.0364 22.9423 34.9599C22.9423 37.8834 25.3123 40.2534 28.2358 40.2534Z" fill="white"/>
<path id="Union_2" fill-rule="evenodd" clip-rule="evenodd" d="M34.4756 46.0573C34.2277 44.6035 35.4461 43.3997 36.9208 43.3997C38.3955 43.3997 39.5576 44.6141 39.9296 46.0411C40.2228 47.166 40.7029 48.2403 41.3557 49.2173C42.5063 50.9393 44.1417 52.2814 46.0551 53.074C47.9685 53.8665 50.0739 54.0739 52.1052 53.6699C54.1364 53.2658 56.0022 52.2685 57.4667 50.8041C58.9311 49.3396 59.9284 47.4738 60.3325 45.4426C60.7365 43.4113 60.5291 41.3059 59.7366 39.3925C58.944 37.4791 57.6019 35.8437 55.8799 34.6931C54.9029 34.0403 53.8286 33.5602 52.7037 33.267C51.2767 32.895 50.0623 31.7329 50.0623 30.2582C50.0623 28.7835 51.2661 27.5651 52.7199 27.813C54.9012 28.1849 56.9904 29.0124 58.8468 30.2528C61.447 31.9902 63.4737 34.4596 64.6704 37.3488C65.8672 40.2381 66.1803 43.4173 65.5702 46.4844C64.9601 49.5516 63.4542 52.369 61.2429 54.5803C59.0316 56.7916 56.2142 58.2975 53.147 58.9076C50.0799 59.5177 46.9007 59.2046 44.0114 58.0078C41.1222 56.8111 38.6528 54.7844 36.9154 52.1842C35.675 50.3278 34.8475 48.2386 34.4756 46.0573ZM44.7001 43.3311C44.7001 40.4076 47.0701 38.0377 49.9936 38.0377C52.9171 38.0377 55.2871 40.4076 55.2871 43.3311C55.2871 46.2546 52.9171 48.6246 49.9936 48.6246C47.0701 48.6246 44.7001 46.2546 44.7001 43.3311Z" fill="#944CDC"/>
</g>
</g>
</svg>
