<svg width="12" height="14" viewBox="0 0 12 14" fill="none" xmlns="http://www.w3.org/2000/svg">
<path id="Icon" fill-rule="evenodd" clip-rule="evenodd" d="M11.3451 5.01502L6.14776 0.132634C6.03837 0.0445589 5.89829 -0.0026133 5.75425 0.000111806H3.5268C1.579 0.000111806 0 1.48341 0 3.31316V10.288C0 12.1177 1.579 13.601 3.5268 13.601H7.9817C9.92949 13.601 11.5085 12.1177 11.5085 10.288V5.40561C11.511 5.26027 11.4523 5.11988 11.3451 5.01502ZM6.31111 1.77172L9.62259 4.8825H7.23921C6.72664 4.8825 6.31111 4.49215 6.31111 4.01064V1.77172ZM1.11373 10.288C1.1178 11.5383 2.19579 12.551 3.5268 12.5548H7.9817C9.31271 12.551 10.3907 11.5383 10.3948 10.288V5.92872H7.23921C6.11154 5.92872 5.19738 5.06997 5.19738 4.01064V1.04634H3.5268C2.19579 1.05017 1.1178 2.06282 1.11373 3.31316V10.288Z" fill="white"/>
</svg>
