<svg width="11" height="15" viewBox="0 0 11 15" fill="none" xmlns="http://www.w3.org/2000/svg">
<path id="Icon" fill-rule="evenodd" clip-rule="evenodd" d="M0 0.608985C0.00405675 0.283168 0.25462 0.0200774 0.564921 0.0158178L0.557389 0C0.869386 0 1.12231 0.26557 1.12231 0.593167V0.846252H5.83752C6.5215 0.805762 7.1077 1.35406 7.14813 2.07213V2.1354C7.18857 2.85347 7.77477 3.40177 8.45875 3.36128H9.14419C9.8241 3.32041 10.4101 3.85837 10.4623 4.57134V8.76305C10.4219 9.48112 9.8357 10.0294 9.15172 9.98893H4.63235C3.94837 10.0294 3.36217 9.48112 3.32174 8.76305V8.7156C3.2813 7.99754 2.6951 7.44923 2.01112 7.48972H1.12984V14.0541C1.12984 14.3817 0.876918 14.6473 0.564921 14.6473C0.252924 14.6473 0 14.3817 0 14.0541V0.608985ZM5.9505 2.10377C5.9136 2.09256 5.87442 2.09256 5.83752 2.10377V2.11958H1.19763V6.24803H2.01112C3.32816 6.21152 4.43504 7.27922 4.51184 8.66024C4.54921 8.66719 4.58745 8.66719 4.62482 8.66024H9.14419C9.18156 8.66719 9.2198 8.66719 9.25717 8.66024V4.57134C9.22027 4.56014 9.1811 4.56014 9.14419 4.57134H8.45875C7.11926 4.61137 5.99959 3.50985 5.9505 2.10377Z" fill="white"/>
</svg>
