<svg width="15" height="15" viewBox="0 0 15 15" fill="none" xmlns="http://www.w3.org/2000/svg">
<g id="Icon">
<path fill-rule="evenodd" clip-rule="evenodd" d="M12.8735 5.02741C13.0158 5.37409 13.3532 5.60088 13.7281 5.60197C14.2369 5.60607 14.6473 6.01954 14.6473 6.52816V8.12659C14.6473 8.63811 14.2324 9.05278 13.7206 9.05278C13.3457 9.05387 13.0084 9.28066 12.866 9.62733C12.7237 9.97401 12.8044 10.3723 13.0704 10.6363C13.4274 11.0019 13.4274 11.5853 13.0704 11.9509L11.9495 13.0713C11.5837 13.428 11 13.428 10.6342 13.0713C10.4655 12.8926 10.2298 12.7924 9.98406 12.7949C9.737 12.7929 9.49938 12.8896 9.32397 13.0635C9.14857 13.2374 9.04991 13.4741 9.04992 13.7211C9.04992 14.2326 8.63504 14.6473 8.12326 14.6473H6.52401C6.01223 14.6473 5.59735 14.2326 5.59735 13.7211C5.59736 13.4741 5.4987 13.2374 5.3233 13.0635C5.1479 12.8896 4.91027 12.7929 4.66321 12.7949C4.41743 12.7924 4.18177 12.8926 4.01305 13.0713C3.64728 13.428 3.06356 13.428 2.69779 13.0713L1.57682 11.9509C1.21988 11.5853 1.21988 11.0019 1.57682 10.6363C1.8429 10.3723 1.92359 9.97401 1.78125 9.62733C1.63891 9.28066 1.30159 9.05387 0.926664 9.05278C0.680898 9.05278 0.445197 8.9552 0.271414 8.7815C0.0976304 8.60781 0 8.37223 0 8.12659V6.52816C0 6.01664 0.414882 5.60197 0.926664 5.60197C1.30159 5.60088 1.63891 5.37409 1.78125 5.02741C1.92359 4.68073 1.8429 4.28249 1.57682 4.01848C1.21988 3.65289 1.21988 3.06947 1.57682 2.70388L2.69779 1.58349C3.06356 1.22673 3.64728 1.22673 4.01305 1.58349C4.18177 1.76215 4.41743 1.86232 4.66321 1.85985C4.91157 1.86186 5.15034 1.76414 5.32597 1.58861C5.50159 1.41307 5.59936 1.17442 5.59735 0.926192C5.59735 0.41467 6.01223 0 6.52401 0H8.13073C8.64251 0 9.05739 0.41467 9.05739 0.926192C9.05538 1.17442 9.15316 1.41307 9.32878 1.58861C9.5044 1.76414 9.74317 1.86186 9.99153 1.85985C10.2373 1.86232 10.473 1.76215 10.6417 1.58349C11.0075 1.22673 11.5912 1.22673 11.957 1.58349L13.0779 2.70388C13.4349 3.06947 13.4349 3.65289 13.0779 4.01848C12.8118 4.28249 12.7312 4.68073 12.8735 5.02741ZM11.8075 9.19469C12.0992 8.48379 12.7672 7.9982 13.5338 7.93985L13.5114 6.71489C12.7531 6.64844 12.0956 6.16418 11.8075 5.46005C11.5253 4.75426 11.6545 3.95052 12.1438 3.36865L11.2844 2.50968C10.9199 2.81473 10.4594 2.98138 9.98406 2.98025C8.92501 2.97765 8.04003 2.17383 7.93643 1.12039H6.71084C6.61059 2.1755 5.72361 2.98114 4.66321 2.98025C4.18785 2.98138 3.72734 2.81473 3.36289 2.50968L2.52591 3.36865C3.00757 3.95496 3.12813 4.7583 2.83978 5.46005C2.55167 6.16418 1.89413 6.64844 1.13591 6.71489V7.93985C1.89413 8.00631 2.55167 8.49056 2.83978 9.19469C3.12199 9.90048 2.99275 10.7042 2.50349 11.2861L3.36289 12.1451C3.72734 11.84 4.18785 11.6734 4.66321 11.6745C5.72226 11.6771 6.60724 12.4809 6.71084 13.5343H7.93643C8.02987 12.4758 8.92093 11.6665 9.98406 11.6745C10.4594 11.6734 10.9199 11.84 11.2844 12.1451L12.1214 11.2861C11.6397 10.6998 11.5191 9.89645 11.8075 9.19469Z" fill="white"/>
<path fill-rule="evenodd" clip-rule="evenodd" d="M4.73794 7.32737C4.73794 5.90006 5.8956 4.743 7.32364 4.743C8.00941 4.743 8.66709 5.01528 9.152 5.49994C9.63691 5.98461 9.90933 6.64195 9.90933 7.32737C9.90933 8.75468 8.75168 9.91175 7.32364 9.91175C5.8956 9.91175 4.73794 8.75468 4.73794 7.32737ZM5.82902 7.32737C5.82902 8.15241 6.49818 8.82123 7.32364 8.82123C8.14909 8.82123 8.81826 8.15241 8.81826 7.32737C8.81826 6.50234 8.14909 5.83351 7.32364 5.83351C6.49818 5.83351 5.82902 6.50234 5.82902 7.32737Z" fill="white"/>
</g>
</svg>
