<svg width="14" height="14" viewBox="0 0 14 14" fill="none" xmlns="http://www.w3.org/2000/svg">
<g id="Icon">
<path fill-rule="evenodd" clip-rule="evenodd" d="M2.59067 0H11.0104C12.4412 0 13.601 1.15988 13.601 2.59067V11.0104C13.601 12.4412 12.4412 13.601 11.0104 13.601H2.59067C1.15988 13.601 0 12.4412 0 11.0104V2.59067C0 1.15988 1.15988 0 2.59067 0ZM11.0104 12.6295C11.9046 12.6295 12.6295 11.9046 12.6295 11.0104V2.59067C12.6295 1.69643 11.9046 0.971503 11.0104 0.971503H2.59067C1.69643 0.971503 0.971502 1.69643 0.971502 2.59067V11.0104C0.971502 11.9046 1.69643 12.6295 2.59067 12.6295H11.0104Z" fill="white"/>
<path d="M10.3627 4.6956H8.41969C8.15142 4.6956 7.93394 4.91308 7.93394 5.18135C7.93394 5.44962 8.15142 5.6671 8.41969 5.6671H9.02202L6.71632 7.9728L5.42099 6.67746C5.07725 6.33491 4.5212 6.33491 4.17746 6.67746L2.48705 8.31606C2.29763 8.50571 2.29763 8.81294 2.48705 9.00259C2.57765 9.09433 2.70138 9.14569 2.83031 9.14508C2.95939 9.14643 3.0834 9.09496 3.17358 9.00259L4.77332 7.40285L6.06866 8.69819C6.41461 9.04149 6.9727 9.04149 7.31866 8.69819L9.85104 6.1658V7.12435C9.85104 7.39263 10.0685 7.61011 10.3368 7.61011C10.6051 7.61011 10.8225 7.39263 10.8225 7.12435V5.18135C10.8197 4.92416 10.6193 4.7125 10.3627 4.6956Z" fill="white"/>
</g>
</svg>
