<svg width="14" height="14" viewBox="0 0 14 14" fill="none" xmlns="http://www.w3.org/2000/svg">
<g id="Icon">
<path d="M4.11257 5.42966C4.85482 5.42966 5.45654 4.82794 5.45654 4.08569C5.45654 3.34343 4.85482 2.74171 4.11257 2.74171C3.37031 2.74171 2.76859 3.34343 2.76859 4.08569C2.76859 4.82794 3.37031 5.42966 4.11257 5.42966Z" fill="white"/>
<path fill-rule="evenodd" clip-rule="evenodd" d="M8.22513 0H5.3759C2.40687 0 0 2.40687 0 5.3759V8.22513C0 11.1942 2.40687 13.601 5.3759 13.601H8.22513C11.1942 13.601 13.601 11.1942 13.601 8.22513V5.3759C13.601 3.95013 13.0347 2.58274 12.0265 1.57457C11.0183 0.566388 9.65091 0 8.22513 0ZM5.3759 1.00798H8.22513C10.4064 1.01139 12.2507 2.62341 12.546 4.78455H11.5044C8.70007 4.78684 6.10697 6.27519 4.69048 8.69553C3.80589 7.99284 2.70889 7.61138 1.57917 7.61362H1.00798V5.3759C1.01168 2.9651 2.9651 1.01168 5.3759 1.00798ZM1.57917 8.62161H1.02814C1.17412 10.2063 2.17044 11.5863 3.62874 12.2235C3.6769 11.3265 3.87921 10.4445 4.2268 9.61615C3.4933 8.97582 2.55285 8.62255 1.57917 8.62161ZM8.22513 12.5931H5.3759C5.12327 12.5921 4.87128 12.5673 4.62328 12.5191C4.70718 8.77707 7.76143 5.78545 11.5044 5.7791H12.5931V8.22513C12.5894 10.6359 10.6359 12.5894 8.22513 12.5931Z" fill="white"/>
</g>
</svg>
