<svg width="16" height="14" viewBox="0 0 16 14" fill="none" xmlns="http://www.w3.org/2000/svg">
<g id="Vector">
<path fill-rule="evenodd" clip-rule="evenodd" d="M8.18549 1.3275C7.73847 1.24958 7.278 1.3276 6.88256 1.54826C6.48712 1.76892 6.18118 2.11856 6.0169 2.5376C5.85262 2.95664 5.84016 3.41913 5.98165 3.84625C6.12313 4.27336 6.4098 4.63867 6.7928 4.8799C6.93892 4.97218 7.04207 5.11813 7.07958 5.28569C7.1171 5.45325 7.08591 5.6287 6.99288 5.7735L4.4285 9.76428C4.56166 10.017 4.60689 10.3062 4.55718 10.587C4.50747 10.8678 4.36558 11.1245 4.15354 11.3174C3.9415 11.5102 3.67114 11.6283 3.3844 11.6534C3.09766 11.6785 2.81056 11.6093 2.56762 11.4563C2.32469 11.3034 2.13949 11.0753 2.04077 10.8076C1.94204 10.5398 1.93529 10.2472 2.02157 9.97521C2.10785 9.70323 2.28234 9.46704 2.51797 9.30328C2.7536 9.13952 3.03721 9.05734 3.32481 9.06947L5.57403 5.56953C5.16827 5.18133 4.87086 4.69575 4.71071 4.16001C4.55056 3.62427 4.53312 3.0566 4.6601 2.51221C4.78708 1.96782 5.05415 1.46524 5.43534 1.05334C5.81653 0.641439 6.29886 0.334243 6.83543 0.161626C7.37199 -0.0109912 7.94454 -0.0431551 8.49737 0.0682624C9.05021 0.17968 9.56452 0.430887 9.9903 0.797452C10.4161 1.16402 10.7388 1.63347 10.9271 2.16014C11.1155 2.68682 11.163 3.2528 11.065 3.80304C11.0501 3.8868 11.0186 3.96683 10.9725 4.03855C10.9263 4.11027 10.8663 4.17229 10.7959 4.22105C10.7256 4.26982 10.6462 4.30438 10.5623 4.32276C10.4785 4.34115 10.3918 4.34299 10.3072 4.3282C10.2226 4.3134 10.1418 4.28225 10.0694 4.23653C9.99699 4.1908 9.93437 4.1314 9.88513 4.06171C9.83589 3.99202 9.801 3.91341 9.78243 3.83036C9.76387 3.74731 9.76201 3.66146 9.77695 3.5777C9.86722 3.07039 9.75035 2.54835 9.45202 2.12637C9.1537 1.7044 8.69771 1.41704 8.18549 1.3275Z" fill="white"/>
<path fill-rule="evenodd" clip-rule="evenodd" d="M6.67115 2.67084C6.58438 2.84725 6.53921 3.04087 6.53906 3.2371C6.53908 3.41185 6.5748 3.58479 6.64409 3.74551C6.71337 3.90623 6.81478 4.05139 6.94221 4.17227C7.06964 4.29315 7.22046 4.38724 7.38557 4.44887C7.55069 4.5105 7.72669 4.53839 7.90299 4.53088L10.468 8.52166C10.5611 8.66647 10.7084 8.76876 10.8776 8.80604C11.0468 8.84332 11.224 8.81253 11.3703 8.72045C11.6761 8.52779 12.0297 8.42278 12.3921 8.41707C12.7544 8.41136 13.1113 8.50517 13.4231 8.68811C13.7349 8.87104 13.9894 9.13594 14.1584 9.45341C14.3275 9.77089 14.4044 10.1285 14.3806 10.4867C14.3569 10.8448 14.2334 11.1894 14.024 11.4823C13.8145 11.7752 13.5272 12.0048 13.194 12.1458C12.8607 12.2868 12.4945 12.3337 12.136 12.2811C11.7775 12.2285 11.4408 12.0787 11.1631 11.8481C11.0297 11.7419 10.8597 11.6918 10.6895 11.7083C10.5193 11.7249 10.3624 11.8069 10.2525 11.9367C10.1426 12.0664 10.0884 12.2337 10.1015 12.4026C10.1147 12.5715 10.1941 12.7285 10.3229 12.8401C10.7642 13.2069 11.2956 13.4516 11.8632 13.5495C12.4308 13.6475 13.0144 13.5951 13.555 13.3977C14.0956 13.2004 14.5739 12.8651 14.9415 12.4257C15.3091 11.9864 15.553 11.4586 15.6484 10.8959C15.7438 10.3332 15.6873 9.75554 15.4847 9.22139C15.2821 8.68724 14.9406 8.21561 14.4947 7.85425C14.0489 7.49289 13.5145 7.25464 12.9457 7.16363C12.3769 7.07263 11.794 7.1321 11.2559 7.33602L9.00667 3.83607C9.09817 3.66202 9.14853 3.46965 9.15395 3.2735C9.15938 3.07735 9.11972 2.88254 9.03799 2.70379C8.95625 2.52504 8.83457 2.36702 8.68213 2.24167C8.5297 2.11632 8.35049 2.02691 8.15805 1.9802C7.96561 1.93349 7.76497 1.93069 7.57128 1.97203C7.37759 2.01336 7.19592 2.09775 7.03998 2.21881C6.88405 2.33987 6.75793 2.49444 6.67115 2.67084ZM2.96787 8.20002C3.04119 8.04447 3.04915 7.86646 2.98999 7.70511C2.9306 7.54377 2.80892 7.41175 2.65172 7.33925C2.49452 7.26675 2.31468 7.25907 2.15177 7.31788C1.61606 7.5111 1.14068 7.8397 0.772821 8.27108C0.40496 8.70245 0.157404 9.2216 0.0547232 9.777C-0.047958 10.3324 -0.00219461 10.9047 0.187472 11.4372C0.377138 11.9697 0.704112 12.4438 1.13594 12.8124C1.56777 13.1811 2.08944 13.4315 2.64918 13.5388C3.20892 13.6461 3.78727 13.6066 4.32681 13.4241C4.86636 13.2417 5.34835 12.9227 5.72496 12.4988C6.10156 12.0749 6.35967 11.5608 6.47368 11.0076H11.2906C11.4345 11.2545 11.6567 11.4474 11.9226 11.5565C12.1886 11.6656 12.4834 11.6848 12.7615 11.611C13.0396 11.5372 13.2853 11.3746 13.4605 11.1484C13.6357 10.9222 13.7307 10.6451 13.7307 10.36C13.7307 10.0749 13.6357 9.79781 13.4605 9.57163C13.2853 9.34545 13.0396 9.18286 12.7615 9.10907C12.4834 9.03529 12.1886 9.05443 11.9226 9.16353C11.6567 9.27262 11.4345 9.46559 11.2906 9.71248H5.88587C5.71246 9.71248 5.54615 9.7807 5.42353 9.90214C5.30092 10.0236 5.23203 10.1883 5.23203 10.36C5.232 10.7154 5.13355 11.0639 4.9474 11.3677C4.76125 11.6715 4.49452 11.9189 4.17626 12.083C3.858 12.247 3.50038 12.3215 3.14234 12.2983C2.7843 12.2751 2.43955 12.1551 2.1456 11.9513C1.85166 11.7475 1.61978 11.4678 1.47522 11.1425C1.33065 10.8173 1.27893 10.459 1.32568 10.1067C1.37244 9.75441 1.51587 9.42154 1.74038 9.14435C1.96489 8.86715 2.26187 8.65626 2.599 8.53461C2.76188 8.47591 2.89456 8.35556 2.96787 8.20002Z" fill="white"/>
</g>
</svg>
