<svg width="11" height="15" viewBox="0 0 11 15" fill="none" xmlns="http://www.w3.org/2000/svg">
<path id="Icon" fill-rule="evenodd" clip-rule="evenodd" d="M8.39574 4.55541V2.35973C8.39611 1.78612 8.17462 1.23704 7.78222 0.838808C7.38982 0.440572 6.8603 0.227459 6.31545 0.248492H4.12145C3.57661 0.227459 3.04709 0.440572 2.65469 0.838808C2.26229 1.23704 2.0408 1.78612 2.04117 2.35973V4.55541C0.657328 5.07098 -0.184372 6.54689 0.0344565 8.07414L0.669914 12.1348C0.975373 13.7672 2.35314 14.9316 3.93416 14.8934H6.5295C8.11053 14.9316 9.48829 13.7672 9.79375 12.1348L10.4292 8.07414C10.6448 6.53918 9.79023 5.06048 8.39574 4.55541ZM5.88736 10.0517L6.02783 10.488C6.08942 10.6877 6.05724 10.9063 5.94112 11.0771C5.825 11.2478 5.63873 11.3504 5.43919 11.3536H4.9442C4.74466 11.3504 4.55839 11.2478 4.44228 11.0771C4.32616 10.9063 4.29398 10.6877 4.35557 10.488L4.49604 10.0517C4.57178 9.80517 4.51268 9.53483 4.34219 9.34792C3.96316 8.87415 4.00137 8.17151 4.4293 7.74631C4.85723 7.32112 5.52617 7.32112 5.9541 7.74631C6.38203 8.17151 6.42024 8.87415 6.0412 9.34792C5.87072 9.53483 5.81162 9.80517 5.88736 10.0517ZM3.04452 4.31614H3.28533V4.32318H7.39239V2.35973C7.36707 1.75988 6.88572 1.29435 6.31546 1.31818H4.12145C3.55119 1.29435 3.06984 1.75988 3.04452 2.35973V4.31614Z" fill="white"/>
</svg>
