<svg width="11" height="14" viewBox="0 0 11 14" fill="none" xmlns="http://www.w3.org/2000/svg">
<g id="Icon">
<path d="M10.4617 6.31477C10.4617 6.04649 10.2396 5.82902 9.96572 5.82902C9.69181 5.82902 9.46976 6.04649 9.46976 6.31477C9.4892 7.43416 9.05329 8.51516 8.25813 9.31946C7.46297 10.1238 6.37385 10.5853 5.23089 10.6023C4.08792 10.5853 2.9988 10.1238 2.20364 9.31946C1.40848 8.51516 0.97257 7.43416 0.992017 6.31477C0.992017 6.04649 0.769965 5.82902 0.49605 5.82902C0.222134 5.82902 8.21241e-05 6.04649 8.21241e-05 6.31477C-0.0149377 8.97669 2.032 11.2167 4.73492 11.4961V13.1153C4.73492 13.3836 4.95697 13.601 5.23089 13.601C5.5048 13.601 5.72685 13.3836 5.72685 13.1153V11.5479C8.45016 11.2666 10.5042 8.99645 10.4617 6.31477Z" fill="white"/>
<path fill-rule="evenodd" clip-rule="evenodd" d="M8.59677 6.47669C8.59677 8.26517 7.11642 9.71503 5.29032 9.71503C3.46422 9.71503 1.98387 8.26517 1.98387 6.47669V3.23834C1.98387 1.44986 3.46422 0 5.29032 0C7.11642 0 8.59677 1.44986 8.59677 3.23834V6.47669ZM5.29032 0.971503C4.01205 0.971503 2.97581 1.9864 2.97581 3.23834V6.47669C2.97581 7.72863 4.01205 8.74353 5.29032 8.74353C6.56859 8.74353 7.60484 7.72863 7.60484 6.47669V3.23834C7.60484 1.9864 6.56859 0.971503 5.29032 0.971503Z" fill="white"/>
</g>
</svg>
