<svg width="14" height="14" viewBox="0 0 14 14" fill="none" xmlns="http://www.w3.org/2000/svg">
<g id="Icon">
<path fill-rule="evenodd" clip-rule="evenodd" d="M2.72021 0H10.8808C12.3832 0 13.601 1.21788 13.601 2.72021V10.8808C13.601 12.3832 12.3832 13.601 10.8808 13.601H2.72021C1.21788 13.601 0 12.3832 0 10.8808V2.72021C0 1.21788 1.21788 0 2.72021 0ZM12.0397 12.0397C12.3471 11.7324 12.5198 11.3155 12.5198 10.8808V2.72021C12.5198 2.28554 12.3471 1.86867 12.0397 1.56131C11.7324 1.25395 11.3155 1.08128 10.8808 1.08128H2.72021C1.81506 1.08128 1.08128 1.81505 1.08128 2.72021V10.8808C1.08128 11.3155 1.25396 11.7324 1.56131 12.0397C1.86867 12.3471 2.28554 12.5198 2.72021 12.5198H10.8808C11.3155 12.5198 11.7324 12.3471 12.0397 12.0397Z" fill="white"/>
<path d="M9.52073 6.29048H7.31056V4.08031C7.31056 3.79862 7.08221 3.57027 6.80052 3.57027C6.51883 3.57027 6.29048 3.79862 6.29048 4.08031V6.29048H4.08031C3.79862 6.29048 3.57027 6.51883 3.57027 6.80052C3.57027 7.08221 3.79862 7.31056 4.08031 7.31056H6.29048V9.52073C6.29048 9.80241 6.51883 10.0308 6.80052 10.0308C7.08221 10.0308 7.31056 9.80241 7.31056 9.52073V7.31056H9.52073C9.80241 7.31056 10.0308 7.08221 10.0308 6.80052C10.0308 6.51883 9.80241 6.29048 9.52073 6.29048Z" fill="white"/>
</g>
</svg>
