<svg width="14" height="14" viewBox="0 0 14 14" fill="none" xmlns="http://www.w3.org/2000/svg">
<g id="Vector">
<path d="M10.0641 7.81534C10.0376 7.80262 9.04603 7.31436 8.86983 7.25094C8.7979 7.22511 8.72084 7.1999 8.63888 7.1999C8.50499 7.1999 8.39251 7.26662 8.3049 7.39769C8.20585 7.54491 7.90601 7.8954 7.81336 8.0001C7.80126 8.01393 7.78475 8.03044 7.77486 8.03044C7.76598 8.03044 7.61253 7.96725 7.56607 7.94707C6.50241 7.48503 5.69504 6.37394 5.58434 6.18657C5.56853 6.15964 5.56787 6.14741 5.56773 6.14741C5.57162 6.13314 5.60739 6.09728 5.62585 6.07878C5.67985 6.02535 5.73836 5.95492 5.79498 5.88678C5.82178 5.8545 5.84863 5.82217 5.87499 5.7917C5.95713 5.69614 5.99369 5.62195 6.03609 5.53602L6.0583 5.49138C6.16181 5.28573 6.0734 5.11218 6.04483 5.05614C6.02138 5.00924 5.60271 3.99879 5.55819 3.89264C5.45115 3.63647 5.30971 3.51719 5.11316 3.51719C5.09492 3.51719 5.11316 3.51719 5.03667 3.52042C4.94354 3.52435 4.43637 3.59112 4.21213 3.73247C3.97433 3.88239 3.57204 4.36028 3.57204 5.20072C3.57204 5.95712 4.05205 6.67131 4.25815 6.94293C4.26327 6.94978 4.27268 6.96369 4.28632 6.98365C5.07558 8.13629 6.05949 8.99051 7.05692 9.38896C8.01716 9.77252 8.47187 9.81686 8.73037 9.81686C8.83901 9.81686 8.926 9.80834 9.0027 9.80079L9.05137 9.79615C9.38309 9.76674 10.1121 9.389 10.2779 8.9282C10.4085 8.56525 10.443 8.1687 10.3561 8.02479C10.2965 7.92693 10.1939 7.8777 10.0641 7.81534Z" fill="white"/>
<path d="M6.92125 0C3.23766 0 0.240834 2.9743 0.240834 6.6302C0.240834 7.81265 0.557279 8.97011 1.15674 9.98312L0.00935151 13.3677C-0.0120216 13.4308 0.00387576 13.5006 0.0505521 13.5481C0.0842456 13.5825 0.12995 13.601 0.176627 13.601C0.194511 13.601 0.212528 13.5983 0.230104 13.5927L3.75931 12.4713C4.72507 12.9873 5.8166 13.2596 6.92129 13.2596C10.6045 13.2597 13.601 10.2857 13.601 6.6302C13.601 2.9743 10.6045 0 6.92125 0ZM6.92125 11.8786C5.88178 11.8786 4.87499 11.5784 4.00956 11.0105C3.98046 10.9914 3.94668 10.9816 3.91268 10.9816C3.8947 10.9816 3.87669 10.9843 3.85916 10.9899L2.09124 11.5519L2.66195 9.86813C2.68041 9.81364 2.67118 9.75354 2.63718 9.70708C1.97815 8.80658 1.62978 7.74266 1.62978 6.6302C1.62978 3.73587 4.00351 1.38112 6.9212 1.38112C9.83854 1.38112 12.212 3.73587 12.212 6.6302C12.2121 9.52417 9.83863 11.8786 6.92125 11.8786Z" fill="white"/>
</g>
</svg>
