<svg width="15" height="16" viewBox="0 0 15 16" fill="none" xmlns="http://www.w3.org/2000/svg">
<path id="Icon" fill-rule="evenodd" clip-rule="evenodd" d="M1.68817 5.03187C1.27712 5.86699 1.04623 6.80675 1.04623 7.80044C1.04623 8.79413 1.27712 9.7339 1.68817 10.569C2.30567 10.2396 3.07544 9.96895 3.94781 9.77154C3.86773 9.14305 3.82529 8.48155 3.82529 7.80044C3.82529 7.11933 3.86773 6.45784 3.94781 5.82934C3.07544 5.63193 2.30567 5.36126 1.68817 5.03187ZM2.2279 4.13369C2.73203 4.39579 3.37455 4.62264 4.11928 4.79529C4.27328 4.04953 4.48366 3.3693 4.74058 2.78207C4.88226 2.45822 5.04062 2.15688 5.21535 1.88585C4.00497 2.31733 2.96594 3.10982 2.2279 4.13369ZM7.32364 0.476807C3.2789 0.476807 0 3.75571 0 7.80044C0 11.8452 3.2789 15.1241 7.32364 15.1241C11.3684 15.1241 14.6473 11.8452 14.6473 7.80044C14.6473 3.75571 11.3684 0.476807 7.32364 0.476807ZM7.32364 1.52304C7.08592 1.52304 6.81823 1.63096 6.52914 1.91044C6.23754 2.19235 5.95104 2.62554 5.69909 3.20142C5.47587 3.71165 5.28784 4.31542 5.14771 4.98849C5.86087 5.09355 6.63833 5.15216 7.4569 5.15216C8.17788 5.15216 8.86642 5.10672 9.50695 5.02425C9.36607 4.3368 9.17535 3.72067 8.94818 3.20142C8.69623 2.62554 8.40973 2.19235 8.11813 1.91044C7.82904 1.63096 7.56135 1.52304 7.32364 1.52304ZM10.5395 4.85145C10.3845 4.08366 10.17 3.38401 9.9067 2.78207C9.76501 2.45822 9.60665 2.15688 9.43192 1.88585C10.6805 2.33095 11.7467 3.16019 12.4883 4.2313C11.958 4.48036 11.2969 4.69328 10.5395 4.85145ZM9.67352 6.05756C8.97031 6.14959 8.22482 6.1984 7.4569 6.1984C6.59215 6.1984 5.7566 6.13653 4.9782 6.02099C4.90899 6.58405 4.87153 7.18083 4.87153 7.80044C4.87153 8.42005 4.90899 9.01684 4.9782 9.5799C5.7566 9.46435 6.59215 9.40249 7.4569 9.40249C8.22482 9.40249 8.97031 9.4513 9.67352 9.54333C9.73989 8.99102 9.77575 8.40665 9.77575 7.80044C9.77575 7.19423 9.73989 6.60987 9.67352 6.05756ZM10.7065 9.71561C10.782 9.10384 10.822 8.46138 10.822 7.80044C10.822 7.13951 10.782 6.49704 10.7065 5.88528C11.5848 5.70519 12.369 5.45255 13.0114 5.14081C13.3897 5.94838 13.601 6.84973 13.601 7.80044C13.601 8.75116 13.3897 9.65251 13.0114 10.4601C12.369 10.1483 11.5848 9.89569 10.7065 9.71561ZM9.50695 10.5766C8.86642 10.4942 8.17788 10.4487 7.4569 10.4487C6.63833 10.4487 5.86087 10.5073 5.14771 10.6124C5.28784 11.2855 5.47587 11.8892 5.69909 12.3995C5.95104 12.9753 6.23754 13.4085 6.52914 13.6904C6.81823 13.9699 7.08592 14.0778 7.32364 14.0778C7.56135 14.0778 7.82904 13.9699 8.11813 13.6904C8.40973 13.4085 8.69623 12.9753 8.94818 12.3995C9.17535 11.8802 9.36607 11.2641 9.50695 10.5766ZM9.43192 13.715C9.60665 13.444 9.76501 13.1427 9.9067 12.8188C10.17 12.2169 10.3845 11.5172 10.5395 10.7494C11.2969 10.9076 11.958 11.1205 12.4883 11.3696C11.7467 12.4407 10.6805 13.2699 9.43192 13.715ZM5.21535 13.715C5.04062 13.444 4.88226 13.1427 4.74058 12.8188C4.48366 12.2316 4.27328 11.5514 4.11928 10.8056C3.37455 10.9782 2.73203 11.2051 2.2279 11.4672C2.96594 12.4911 4.00497 13.2836 5.21535 13.715Z" fill="white"/>
</svg>
