<svg width="224" height="224" viewBox="0 0 224 224" fill="none" xmlns="http://www.w3.org/2000/svg">
<g id="Group">
<rect id="Rectangle" x="1" y="1" width="222" height="222" rx="9" fill="#303030" stroke="#505050" stroke-width="2"/>
<g id="Group_2">
<path id="Vector" d="M149.881 143.489C149.897 146.482 148.627 149.337 146.395 151.331C144.162 153.324 141.182 154.264 138.21 153.911C132.861 153.119 128.942 148.465 129.072 143.06V80.9211C128.943 75.5104 132.872 70.8541 138.227 70.0708C141.197 69.7233 144.172 70.6653 146.401 72.6581C148.629 74.651 149.896 77.5034 149.881 80.4928V143.489Z" fill="#F9AB00"/>
<path id="Vector_2" d="M84.4041 133.192C90.1502 133.192 94.8083 137.85 94.8083 143.596C94.8083 149.342 90.1502 154 84.4041 154C78.6581 154 74 149.342 74 143.596C74 137.85 78.6581 133.192 84.4041 133.192ZM111.78 101.658C106.006 101.975 101.527 106.817 101.661 112.598V140.544C101.661 148.129 104.998 152.733 109.888 153.715C112.958 154.337 116.145 153.545 118.567 151.559C120.989 149.573 122.389 146.603 122.38 143.471V112.116C122.385 109.316 121.265 106.631 119.272 104.665C117.279 102.698 114.579 101.615 111.78 101.658Z" fill="#E37400"/>
</g>
</g>
</svg>
