<svg width="224" height="224" viewBox="0 0 224 224" fill="none" xmlns="http://www.w3.org/2000/svg">
<g id="Group">
<rect id="Rectangle" x="1" y="1" width="222" height="222" rx="9" fill="#303030" stroke="#505050" stroke-width="2"/>
<g id="Vector">
<path fill-rule="evenodd" clip-rule="evenodd" d="M115.025 72.6627C111.693 72.0955 108.26 72.6634 105.312 74.2695C102.363 75.8757 100.083 78.4207 98.8579 81.4708C97.6331 84.5209 97.5402 87.8874 98.5951 90.9963C99.6499 94.1052 101.787 96.7642 104.642 98.5201C105.732 99.1918 106.501 100.254 106.78 101.474C107.06 102.693 106.828 103.971 106.134 105.024L87.0158 134.073C88.0086 135.913 88.3458 138.018 87.9752 140.061C87.6046 142.105 86.5468 143.974 84.966 145.377C83.3851 146.781 81.3695 147.641 79.2318 147.824C77.094 148.006 74.9536 147.502 73.1424 146.389C71.3313 145.276 69.9506 143.616 69.2145 141.667C68.4785 139.717 68.4282 137.588 69.0714 135.608C69.7147 133.628 71.0155 131.909 72.7722 130.717C74.5289 129.525 76.6433 128.927 78.7875 129.015L95.5562 103.54C92.5311 100.714 90.3138 97.1797 89.1198 93.2801C87.9258 89.3805 87.7959 85.2485 88.7425 81.286C89.6892 77.3235 91.6803 73.6652 94.5222 70.6671C97.364 67.6689 100.96 65.4329 104.96 64.1765C108.961 62.92 113.229 62.6859 117.351 63.4969C121.472 64.3079 125.307 66.1364 128.481 68.8045C131.655 71.4727 134.061 74.8898 135.465 78.7234C136.869 82.557 137.223 86.6767 136.493 90.6818C136.382 91.2915 136.147 91.874 135.803 92.396C135.459 92.9181 135.012 93.3695 134.487 93.7244C133.962 94.0794 133.371 94.3309 132.746 94.4648C132.12 94.5986 131.474 94.612 130.844 94.5043C130.213 94.3966 129.611 94.1699 129.071 93.8371C128.531 93.5043 128.064 93.0719 127.697 92.5646C127.33 92.0573 127.07 91.4851 126.931 90.8806C126.793 90.2762 126.779 89.6512 126.89 89.0416C127.563 85.349 126.692 81.5491 124.468 78.4776C122.244 75.4061 118.844 73.3145 115.025 72.6627Z" fill="#E91E63"/>
<path fill-rule="evenodd" clip-rule="evenodd" d="M103.736 82.4407C103.089 83.7247 102.752 85.1341 102.751 86.5624C102.751 87.8344 103.017 89.0932 103.534 90.263C104.05 91.4329 104.806 92.4895 105.756 93.3694C106.706 94.2492 107.831 94.9341 109.062 95.3827C110.293 95.8312 111.605 96.0343 112.919 95.9796L132.042 125.028C132.736 126.082 133.835 126.827 135.096 127.098C136.357 127.369 137.679 127.145 138.769 126.475C141.049 125.073 143.686 124.308 146.387 124.267C149.088 124.225 151.749 124.908 154.073 126.239C156.398 127.571 158.295 129.499 159.556 131.81C160.816 134.121 161.389 136.724 161.212 139.331C161.035 141.938 160.115 144.446 158.553 146.578C156.992 148.71 154.85 150.381 152.365 151.408C149.881 152.434 147.151 152.775 144.478 152.392C141.805 152.01 139.294 150.919 137.224 149.24C136.23 148.468 134.963 148.103 133.694 148.223C132.425 148.344 131.255 148.94 130.435 149.885C129.616 150.83 129.212 152.047 129.31 153.277C129.408 154.506 130.001 155.649 130.96 156.461C134.251 159.131 138.212 160.912 142.444 161.625C146.675 162.338 151.027 161.957 155.057 160.52C159.087 159.084 162.653 156.643 165.394 153.445C168.134 150.247 169.952 146.406 170.664 142.31C171.375 138.214 170.954 134.009 169.443 130.121C167.933 126.233 165.387 122.8 162.063 120.17C158.739 117.54 154.755 115.805 150.514 115.143C146.274 114.481 141.928 114.913 137.916 116.398L121.148 90.9222C121.83 89.6553 122.205 88.2551 122.246 86.8273C122.286 85.3996 121.99 83.9816 121.381 82.6805C120.772 81.3794 119.864 80.2292 118.728 79.3168C117.592 78.4044 116.256 77.7536 114.821 77.4136C113.386 77.0736 111.89 77.0532 110.446 77.3541C109.002 77.655 107.648 78.2692 106.485 79.1504C105.323 80.0316 104.382 81.1566 103.736 82.4407ZM76.1264 122.687C76.673 121.555 76.7324 120.259 76.2913 119.084C75.8485 117.91 74.9414 116.949 73.7694 116.421C72.5975 115.894 71.2567 115.838 70.0421 116.266C66.0482 117.672 62.5041 120.064 59.7616 123.204C57.0191 126.344 55.1735 130.123 54.408 134.165C53.6425 138.208 53.9836 142.374 55.3977 146.25C56.8117 150.126 59.2494 153.576 62.4688 156.26C65.6882 158.943 69.5775 160.766 73.7505 161.547C77.9235 162.328 82.2353 162.04 86.2577 160.712C90.2803 159.384 93.8737 157.062 96.6813 153.977C99.489 150.891 101.413 147.149 102.263 143.122H138.175C139.248 144.92 140.904 146.324 142.887 147.118C144.87 147.912 147.068 148.052 149.141 147.515C151.214 146.977 153.046 145.794 154.352 144.148C155.659 142.501 156.367 140.484 156.367 138.409C156.367 136.334 155.659 134.317 154.352 132.671C153.046 131.024 151.214 129.841 149.141 129.304C147.068 128.767 144.87 128.906 142.887 129.7C140.904 130.494 139.248 131.899 138.175 133.696H97.881C96.5882 133.696 95.3483 134.192 94.4342 135.076C93.52 135.96 93.0064 137.159 93.0064 138.409C93.0062 140.996 92.2722 143.533 90.8844 145.744C89.4966 147.955 87.5081 149.756 85.1353 150.95C82.7626 152.144 80.0964 152.687 77.4271 152.518C74.7578 152.349 72.1876 151.475 69.9961 149.992C67.8047 148.508 66.076 146.472 64.9982 144.105C63.9204 141.738 63.5348 139.13 63.8834 136.565C64.2319 134.001 65.3013 131.578 66.9751 129.56C68.6489 127.543 70.8629 126.008 73.3763 125.122C74.5906 124.695 75.5798 123.819 76.1264 122.687Z" fill="#37474F"/>
</g>
</g>
</svg>
