<svg width="224" height="224" viewBox="0 0 224 224" fill="none" xmlns="http://www.w3.org/2000/svg">
<g id="Group">
<rect id="Rectangle" x="1" y="1" width="222" height="222" rx="9" fill="#303030" stroke="#505050" stroke-width="2"/>
<g id="Group_2">
<path id="Vector" d="M167.25 124.25C167.25 96.6875 153.469 77 135.75 77C121.969 77 112.125 92.75 112.125 92.75C104.25 104.562 104.25 126.219 116.062 102.594C116.062 102.594 125.906 86.8438 135.75 86.8438C149.531 86.8438 156.793 110.469 156.793 124.25C156.793 128.188 155.438 136.062 147.562 136.062V147.875C155.438 147.875 167.25 141.969 167.25 124.25Z" fill="url(#paint0_radial_2_306)"/>
<path id="Vector_2" d="M88.5 77V88.8125C75.9 90.3875 68.8125 110.469 68.8125 124.25C68.8125 128.188 70.7812 136.062 76.6875 136.062C86.5312 136.062 97.8505 114.327 108.188 98.4302C113.675 89.991 119.137 97.2371 114.972 104.562C105.103 121.92 95.2214 147.875 76.6875 147.875C68.8125 147.875 57 141.969 57 124.25C57 88.8125 78.6562 77 88.5 77Z" fill="url(#paint1_radial_2_306)"/>
<path id="Vector_3" d="M147.563 136.062C133.781 136.062 118.031 77 88.5 77V88.8125C112.125 88.8125 121.969 147.875 147.563 147.875V136.062Z" fill="#0768E1"/>
</g>
</g>
<defs>
<radialGradient id="paint0_radial_2_306" cx="0" cy="0" r="1" gradientUnits="userSpaceOnUse" gradientTransform="translate(147.562 143.937) rotate(-101.31) scale(70.2709 54.6551)">
<stop stop-color="#0768E1"/>
<stop offset="1" stop-color="#0082FB"/>
</radialGradient>
<radialGradient id="paint1_radial_2_306" cx="0" cy="0" r="1" gradientUnits="userSpaceOnUse" gradientTransform="translate(88.5 84.875) rotate(154.537) scale(45.792 24.0175)">
<stop stop-color="#0768E1"/>
<stop offset="1" stop-color="#0082FB"/>
</radialGradient>
</defs>
</svg>
