<svg width="224" height="224" viewBox="0 0 224 224" fill="none" xmlns="http://www.w3.org/2000/svg">
<g id="Group">
<rect id="Rectangle" x="1" y="1" width="222" height="222" rx="9" fill="#303030" stroke="#505050" stroke-width="2"/>
<path id="Vector" d="M161.223 117.805C160.123 113.798 157.811 110.04 154.675 107.132C159.446 99.5941 159.294 90.0077 154.217 83.021C151.268 78.9632 146.805 75.9872 141.647 74.6404C137.483 73.5543 132.935 73.5971 128.748 74.7473C124.334 67.0123 115.613 62.3473 106.768 63.0742C101.632 63.4975 96.7148 65.721 92.9244 69.334C89.86 72.2544 87.6241 76.0557 86.5685 80.1134C77.3931 79.9253 68.8102 84.8382 65.0465 92.5519C62.8596 97.0329 62.4097 102.232 63.7726 107.192C64.8727 111.199 67.1844 114.957 70.3201 117.865C65.5498 125.403 65.7012 134.99 70.7789 141.976C73.7275 146.034 78.1904 149.01 83.3482 150.357C87.5306 151.447 92.0559 151.413 96.2516 150.25C100.34 157.416 108.153 162 116.397 162C117.007 162 117.627 161.974 118.232 161.923C123.368 161.5 128.285 159.276 132.076 155.663C135.136 152.743 137.376 148.942 138.432 144.884C138.61 144.884 138.792 144.888 138.97 144.888C148.03 144.888 156.266 140.005 159.954 132.445C162.14 127.964 162.59 122.765 161.227 117.805H161.223ZM121.163 130.389L97.2404 143.648C97.04 143.738 96.8351 143.828 96.6346 143.909C94.3764 144.837 91.9935 145.303 89.5571 145.303C83.9762 145.303 78.8318 142.801 75.7897 138.615C72.1864 133.66 72.0216 126.818 75.2864 121.32L100.79 135.46L120.981 123.573L121.168 130.384L121.163 130.389ZM106.741 125.082L100.688 128.644L76.7651 115.385C76.5736 115.257 76.3999 115.137 76.2262 115.009C69.6253 110.254 67.2468 101.852 70.5739 95.0318C73.2419 89.5588 79.3307 86.0013 85.9271 85.9628V114.235L106.741 125.078V125.082ZM120.5 116.933L112.5 121.367L104.501 116.933V108.065L112.5 103.631L120.5 108.065V116.933ZM118.255 99.9106L124.308 96.3488L148.23 109.608C148.422 109.736 148.596 109.856 148.769 109.984C155.37 114.739 157.749 123.141 154.422 129.961C151.749 135.434 145.665 138.992 139.068 139.03V110.758L118.255 99.9148V99.9106ZM103.832 94.6042L127.755 81.3449C127.956 81.2551 128.16 81.1653 128.361 81.0841C135.951 77.9712 144.721 80.1989 149.21 86.3733C152.814 91.329 152.983 98.1703 149.718 103.669L124.214 89.5288L104.024 101.416L103.837 94.6042H103.832ZM98.2648 114.004L92.0247 110.754V84.2353C92.0425 84.0173 92.0648 83.8035 92.0915 83.5982C93.0803 75.7307 99.4719 69.5564 107.289 68.9107C113.565 68.3934 119.814 71.6729 123.145 77.1374L97.6368 91.2691L98.2648 113.999V114.004ZM126.731 110.989L132.971 114.239V140.758C132.953 140.976 132.931 141.189 132.904 141.395C131.915 149.262 125.524 155.437 117.707 156.082C111.431 156.604 105.182 153.32 101.85 147.856L127.359 133.724L126.731 110.994V110.989Z" fill="#0EA982"/>
</g>
</svg>
