<svg width="224" height="224" viewBox="0 0 224 224" fill="none" xmlns="http://www.w3.org/2000/svg">
<g id="Group">
<rect id="Rectangle" x="1" y="1" width="222" height="222" rx="9" fill="#303030" stroke="#505050" stroke-width="2"/>
<g id="Vector">
<path d="M84.3198 126.003C84.8928 121.226 86.8386 118.551 90.5054 115.809C95.7519 112.095 102.306 114.196 102.306 114.196V101.734C103.899 101.693 105.493 101.788 107.069 102.018V118.056C107.069 118.056 100.517 115.955 95.2704 119.671C91.6056 122.411 89.6559 125.087 89.0849 129.865C89.067 132.459 89.5504 135.85 91.7767 138.782C91.2263 138.498 90.6652 138.174 90.0936 137.811C85.1893 134.495 84.296 129.519 84.3198 126.003ZM134.129 78.6914C130.52 74.7089 129.155 70.6879 128.661 67.8633H133.202C133.202 67.8633 132.296 75.2696 138.894 82.5529L138.985 82.6508C137.207 81.5245 135.576 80.1951 134.129 78.6914ZM156 89.9822V105.697C156 105.697 150.206 105.469 145.919 104.37C139.932 102.834 136.084 100.478 136.084 100.478C136.084 100.478 133.426 98.7979 133.211 98.6808V131.132C133.211 132.939 132.72 137.452 131.222 141.215C129.266 146.139 126.248 149.37 125.693 150.031C125.693 150.031 122.022 154.399 115.546 157.341C109.709 159.995 104.584 159.928 103.052 159.995C103.052 159.995 94.1921 160.348 86.2199 155.131C84.4959 153.981 82.8867 152.679 81.4131 151.241L81.4529 151.27C89.4271 156.487 98.2846 156.133 98.2846 156.133C99.8186 156.066 104.944 156.133 110.779 153.48C117.249 150.538 120.926 146.169 120.926 146.169C121.475 145.509 124.507 142.277 126.455 137.352C127.949 133.59 128.444 129.076 128.444 127.269V94.8211C128.659 94.9402 131.315 96.6204 131.315 96.6204C131.315 96.6204 135.165 98.9784 141.152 100.513C145.441 101.611 151.233 101.84 151.233 101.84V89.5252C153.215 89.9726 154.904 90.0936 156 89.9822Z" fill="#FD355A"/>
<path d="M151.233 89.5252L151.235 101.836C151.235 101.836 145.443 101.607 141.154 100.509C135.167 98.9726 131.317 96.6165 131.317 96.6165C131.317 96.6165 128.661 94.9363 128.447 94.8173V127.273C128.447 129.08 127.955 133.594 126.457 137.356C124.501 142.281 121.483 145.513 120.928 146.173C120.928 146.173 117.255 150.542 110.781 153.484C104.946 156.137 99.8206 156.07 98.2867 156.137C98.2867 156.137 89.4291 156.491 81.4549 151.273L81.4151 151.245C80.5732 150.424 79.7807 149.557 79.0416 148.648C76.4969 145.524 74.9371 141.83 74.5451 140.776C74.5445 140.771 74.5445 140.767 74.5451 140.762C73.9144 138.93 72.5894 134.531 72.7704 130.27C73.0908 122.753 75.717 118.138 76.4114 116.982C78.2503 113.83 80.6421 111.01 83.4803 108.647C85.9848 106.608 88.8236 104.985 91.8802 103.846C95.1846 102.509 98.7229 101.792 102.306 101.734V114.196C102.306 114.196 95.7499 112.103 90.5054 115.809C86.8386 118.551 84.8928 121.226 84.3198 126.003C84.296 129.519 85.1933 134.493 90.0936 137.811C90.6652 138.174 91.2263 138.498 91.7767 138.782C92.6328 139.903 93.6728 140.881 94.8586 141.674C99.6455 144.725 103.657 144.939 108.786 142.957C112.206 141.632 114.78 138.646 115.974 135.338C116.724 133.271 116.714 131.192 116.714 129.041V67.8633H128.651C129.145 70.6879 130.51 74.7089 134.119 78.6914C135.567 80.1951 137.197 81.5245 138.975 82.6508C139.501 83.1981 142.186 85.9037 145.634 87.5647C147.417 88.4232 149.294 89.0811 151.233 89.5252Z" fill="white"/>
<path d="M69.7939 136.949V136.958L70.0902 137.767C70.0561 137.673 69.9461 137.387 69.7939 136.949Z" fill="#33F3ED"/>
<path d="M91.8802 103.846C88.8236 104.985 85.9848 106.608 83.4803 108.647C80.6412 111.015 78.2501 113.841 76.4135 117C75.7191 118.152 73.0929 122.77 72.7726 130.288C72.5915 134.549 73.9166 138.948 74.5473 140.78C74.5466 140.784 74.5466 140.789 74.5473 140.793C74.9452 141.838 76.499 145.532 79.0437 148.666C79.7829 149.574 80.5753 150.441 81.4172 151.262C78.7198 149.461 76.314 147.285 74.2787 144.802C71.7559 141.705 70.2001 138.049 69.7942 136.97C69.7937 136.962 69.7935 136.957 69.7939 136.949L69.7942 136.933C69.1615 135.103 67.8325 130.702 68.0175 126.436C68.3378 118.918 70.964 114.304 71.6584 113.148C73.4945 109.989 75.8858 107.163 78.7254 104.795C81.2294 102.755 84.0683 101.133 87.1253 99.9944C89.0321 99.2308 91.0185 98.6675 93.0502 98.3142C96.1121 97.7983 99.2393 97.7536 102.316 98.1817V101.734C98.7296 101.791 95.1877 102.507 91.8802 103.846Z" fill="#33F3ED"/>
<path d="M128.661 67.8633L116.724 67.8635V129.043C116.724 131.194 116.724 133.268 115.984 135.34C114.778 138.646 112.214 141.632 108.795 142.957C103.664 144.946 99.6534 144.726 94.8685 141.674C93.6807 140.885 92.636 139.912 91.7767 138.794C95.8533 140.893 99.5022 140.856 104.023 139.105C107.439 137.78 110.007 134.794 111.209 131.486C111.961 129.42 111.951 127.34 111.951 125.191V64H128.435C128.435 64 128.25 65.5207 128.661 67.8633ZM151.235 86.1208L151.233 89.5252C149.298 89.0804 147.424 88.4227 145.644 87.5648C142.196 85.9038 139.51 83.1981 138.985 82.6508C139.595 83.0371 140.227 83.3886 140.879 83.7033C145.071 85.7233 149.2 86.3263 151.235 86.1208Z" fill="#33F3ED"/>
</g>
</g>
</svg>
