<svg width="224" height="224" viewBox="0 0 224 224" fill="none" xmlns="http://www.w3.org/2000/svg">
<g id="Group">
<rect id="Rectangle" x="1" y="1" width="222" height="222" rx="9" fill="#303030" stroke="#505050" stroke-width="2"/>
<g id="Vector">
<path d="M134.555 119.588C134.372 119.499 127.519 116.089 126.301 115.646C125.804 115.466 125.272 115.29 124.705 115.29C123.78 115.29 123.003 115.756 122.397 116.671C121.713 117.699 119.64 120.147 119 120.879C118.916 120.975 118.802 121.091 118.734 121.091C118.673 121.091 117.612 120.649 117.291 120.508C109.94 117.281 104.36 109.52 103.595 108.212C103.485 108.024 103.481 107.938 103.48 107.938C103.507 107.839 103.754 107.588 103.882 107.459C104.255 107.086 104.659 106.594 105.05 106.118C105.236 105.892 105.421 105.666 105.603 105.454C106.171 104.786 106.424 104.268 106.717 103.668L106.87 103.356C107.586 101.92 106.975 100.707 106.777 100.316C106.615 99.9884 103.722 92.9306 103.414 92.1891C102.674 90.3999 101.697 89.5668 100.338 89.5668C100.212 89.5668 100.338 89.5668 99.8096 89.5893C99.166 89.6167 95.6608 90.0831 94.111 91.0704C92.4676 92.1176 89.6872 95.4555 89.6872 101.326C89.6872 106.609 93.0047 111.598 94.4291 113.495C94.4645 113.543 94.5295 113.64 94.6238 113.779C100.079 121.83 106.879 127.797 113.772 130.58C120.408 133.259 123.551 133.568 125.338 133.568H125.338C126.089 133.568 126.69 133.509 127.22 133.456L127.556 133.424C129.849 133.218 134.887 130.58 136.033 127.361C136.936 124.826 137.174 122.056 136.573 121.051C136.162 120.368 135.453 120.024 134.555 119.588Z" fill="#ECE5DD"/>
<path d="M112.834 65C87.3762 65 66.6645 85.7748 66.6645 111.31C66.6645 119.569 68.8515 127.654 72.9945 134.73L65.0646 158.37C64.9169 158.811 65.0268 159.298 65.3494 159.63C65.5822 159.87 65.8981 160 66.2207 160C66.3443 160 66.4688 159.981 66.5903 159.942L90.9815 152.109C97.6561 155.713 105.2 157.615 112.835 157.615C138.29 157.616 159 136.843 159 111.31C159 85.7748 138.29 65 112.834 65ZM112.834 147.969C105.65 147.969 98.6922 145.872 92.711 141.906C92.5099 141.772 92.2764 141.704 92.0414 141.704C91.9172 141.704 91.7927 141.723 91.6715 141.762L79.4531 145.687L83.3974 133.927C83.525 133.546 83.4612 133.126 83.2262 132.802C78.6714 126.512 76.2638 119.081 76.2638 111.31C76.2638 91.0942 92.6692 74.6468 112.834 74.6468C132.996 74.6468 149.4 91.0942 149.4 111.31C149.4 131.524 132.997 147.969 112.834 147.969Z" fill="#ECE5DD"/>
<path fill-rule="evenodd" clip-rule="evenodd" d="M112.834 147.969C105.65 147.969 98.6922 145.872 92.711 141.906C92.5099 141.772 92.2764 141.704 92.0414 141.704C91.9172 141.704 91.7927 141.723 91.6715 141.762L79.4531 145.687L83.3974 133.927C83.525 133.546 83.4612 133.126 83.2262 132.802C78.6714 126.512 76.2638 119.081 76.2638 111.31C76.2638 91.0942 92.6692 74.6468 112.834 74.6468C132.996 74.6468 149.4 91.0942 149.4 111.31C149.4 131.524 132.997 147.969 112.834 147.969ZM126.301 115.646C127.519 116.089 134.372 119.499 134.555 119.588L134.556 119.589C135.453 120.024 136.162 120.368 136.573 121.051C137.174 122.056 136.936 124.826 136.033 127.361C134.887 130.58 129.849 133.218 127.556 133.424L127.22 133.456C126.69 133.509 126.089 133.568 125.338 133.568H125.338C123.551 133.568 120.408 133.259 113.772 130.58C106.879 127.797 100.079 121.83 94.6238 113.779C94.5295 113.64 94.4645 113.543 94.4291 113.495C93.0047 111.598 89.6872 106.609 89.6872 101.326C89.6872 95.4555 92.4676 92.1176 94.111 91.0704C95.6608 90.0831 99.166 89.6167 99.8096 89.5893C100.338 89.5668 100.212 89.5668 100.338 89.5668C101.697 89.5668 102.674 90.3999 103.414 92.1891C103.722 92.9306 106.615 99.9884 106.777 100.316C106.975 100.707 107.586 101.92 106.87 103.356L106.717 103.668L106.716 103.67C106.423 104.269 106.171 104.787 105.603 105.454C105.421 105.666 105.236 105.892 105.05 106.118L105.049 106.119C104.658 106.595 104.254 107.086 103.882 107.459C103.754 107.588 103.507 107.839 103.48 107.938C103.481 107.938 103.485 108.024 103.595 108.212C104.36 109.52 109.94 117.281 117.291 120.508C117.612 120.649 118.673 121.091 118.734 121.091C118.802 121.091 118.916 120.975 119 120.879C119.64 120.147 121.713 117.699 122.397 116.671C123.003 115.756 123.78 115.29 124.705 115.29C125.272 115.29 125.804 115.466 126.301 115.646Z" fill="#25D366"/>
</g>
</g>
</svg>
